<?xml version="1.0" encoding="UTF-8"?>
<svg data-name="Ebene 1" viewBox="0 0 800 800" xmlns="http://www.w3.org/2000/svg">
 <defs>
  <clipPath id="d">
   <circle cx="400" cy="400" r="400" fill="none"/>
  </clipPath>
  <linearGradient id="c" x1="482.76" x2="156.59" y1="317.76" y2="643.94" gradientUnits="userSpaceOnUse">
   <stop offset="0"/>
   <stop stop-opacity="0" offset="1"/>
  </linearGradient>
 </defs>
 <circle cx="400" cy="400" r="400" fill="#1c8adb"/>
 <g clip-path="url(#d)">
  <path d="m20.364 548.36 365.36-365.36h32.774v51.277c31.718 1.0567 53.391 9.5151 68.721 18.502l-13.215 34.889-78.752 78.182c6.4475 3.0971 13.644 6.2526 21.662 9.57 54.447 22.202 81.936 49.69 81.936 96.739a86.522 86.522 0 0 1 -27.063 63.183l-56.46 56.471v25.189l-161.5 161.5c-128.27-65.793-192.04-146.38-233.47-230.13z" fill="url(#c)" opacity=".42"/>
  <path d="m382.03 617v-53.391c-30.659-0.5288-62.376-10.044-80.879-23.261l12.688-35.416c19.03 12.686 46.518 22.73 76.121 22.73 37.532 0 62.906-21.673 62.906-51.804 0-29.074-20.615-47.047-59.733-62.906-53.922-21.146-87.225-45.462-87.225-91.453 0-43.875 31.19-77.179 79.823-85.108v-53.391h32.774v51.277c31.718 1.0567 53.391 9.5152 68.721 18.502l-13.215 34.889c-11.102-6.3431-32.776-17.973-66.606-17.973-40.705 0-56.035 24.317-56.035 45.461 0 27.489 19.559 41.233 65.55 60.263 54.447 22.202 81.936 49.69 81.936 96.739 0 41.76-29.076 80.879-83.523 89.865v54.978z" fill="#fff"/>
 </g>
</svg>
