<?xml version='1.0' encoding='utf-8'?>
<svg xmlns="http://www.w3.org/2000/svg" id="Ebene_1" data-name="Ebene 1" viewBox="0 0 800 800"><defs><clipPath id="clip-path"><circle cx="400" cy="400" r="400" style="fill:none"/></clipPath><linearGradient id="Unbenannter_Verlauf_5" x1="426.4932" y1="373.4932" x2="163.9245" y2="636.062" gradientUnits="userSpaceOnUse"><stop offset="0"/><stop offset="1" stop-opacity="0"/></linearGradient></defs><title>globe</title><g style="clip-path:url(#clip-path)"><circle cx="400" cy="400" r="400" style="fill:#1c8adb"/><path d="M258.8536,784.187,519.84,523.2008q4.0894-3.9791,7.9213-8.2119a8.5,8.5,0,0,0,.7946-.7741,171.7653,171.7653,0,0,0,31.369-50.9722c.0756-.1906.15-.3818.2252-.5728q.5783-1.4777,1.13-2.9656.23-.6187.4551-1.2393.4126-1.1414.8078-2.289c.2084-.6012.4158-1.2027.6176-1.8069.1858-.5578.3656-1.1176.5457-1.6773.2528-.7834.5042-1.5672.746-2.3554.101-.33.197-.6619.296-.9926a170.5259,170.5259,0,0,0,4.9991-21.7336c.0186-.1147.0387-.2289.0571-.3437.1725-1.0779.3317-2.16.484-3.2443.04-.2833.0808-.5663.1193-.85q.1978-1.4624.37-2.9326.0725-.6139.1409-1.2284.1475-1.3347.2755-2.675c.05-.5209.0945-1.0425.1393-1.5643.0687-.8043.1358-1.6089.1934-2.4163.0463-.6458.0842-1.2927.1234-1.9395.0424-.705.0872-1.4091.1209-2.1163.0395-.82.0662-1.6418.0939-2.4634.0185-.5522.0434-1.1027.0567-1.6562q.0505-2.0875.0531-4.18,0-2.164-.0549-4.32c-.01-.41-.0308-.8174-.0439-1.2267-.0327-1.0328-.0671-2.0654-.118-3.0952-.0214-.43-.0523-.8583-.0769-1.2878-.0579-1.0172-.1182-2.0338-.1938-3.0479-.0283-.3771-.0638-.7522-.0945-1.1286-.0873-1.0751-.18-2.1491-.2868-3.22-.0294-.2924-.0635-.5833-.0944-.8752q-.1847-1.7567-.4021-3.5063c-.0219-.1726-.046-.3445-.0683-.5169q-.2519-1.954-.5471-3.898l-.0133-.085A171.0308,171.0308,0,0,0,523.99,280.8394a8.4994,8.4994,0,0,0-.8974-.8027,171.6675,171.6675,0,0,0-246.1868.0009L16.2869,540.62C45.1071,674.7386,125.3806,756.52,258.8536,784.187Z" style="opacity:0.42;fill:url(#Unbenannter_Verlauf_5)"/><path d="M560.15,462.67q.5783-1.4777,1.13-2.9656.23-.6187.4551-1.2393.4126-1.1414.8078-2.289c.2084-.6012.4158-1.2027.6176-1.8069.1858-.5578.3656-1.1176.5457-1.6773.2528-.7834.5042-1.5672.746-2.3554.101-.33.197-.6619.296-.9926a170.5259,170.5259,0,0,0,4.9991-21.7336c.0186-.1147.0387-.2289.0571-.3437.1725-1.0779.3317-2.16.484-3.2443.04-.2833.0808-.5663.1193-.85q.1978-1.4624.37-2.9326.0725-.6139.1409-1.2284.1475-1.3347.2755-2.675c.05-.5209.0945-1.0425.1393-1.5643.0687-.8043.1358-1.6089.1934-2.4163.0463-.6458.0842-1.2927.1234-1.9395.0424-.705.0872-1.4091.1209-2.1163.0395-.82.0662-1.6418.0939-2.4634.0185-.5522.0434-1.1027.0567-1.6562q.0505-2.0875.0531-4.18,0-2.164-.0549-4.32c-.01-.41-.0308-.8174-.0439-1.2267-.0327-1.0328-.0671-2.0654-.118-3.0952-.0214-.43-.0523-.8583-.0769-1.2878-.0579-1.0172-.1182-2.0338-.1938-3.0479-.0283-.3771-.0638-.7522-.0945-1.1286-.0873-1.0751-.18-2.1491-.2868-3.22-.0294-.2924-.0635-.5833-.0944-.8752q-.1847-1.7567-.4021-3.5063c-.0219-.1726-.046-.3445-.0683-.5169q-.2519-1.954-.5471-3.898l-.0133-.085A171.0308,171.0308,0,0,0,523.99,280.8394a8.4994,8.4994,0,0,0-.8974-.8027,171.6675,171.6675,0,0,0-246.1868.0009,8.4941,8.4941,0,0,0-.8958.8018,171.0312,171.0312,0,0,0-45.9893,92.9489l-.0142.09q-.2955,1.9415-.5463,3.8931c-.0226.1739-.0469.3472-.0689.5212q-.22,1.7471-.4016,3.5021c-.031.2933-.0653.5855-.0948.8792-.107,1.07-.1993,2.1431-.2866,3.217-.0308.3774-.0664.7534-.0948,1.1314-.0756,1.0134-.1357,2.03-.1937,3.0461-.0247.43-.0556.8584-.077,1.2893-.051,1.0294-.0852,2.0616-.118,3.0941-.0131.41-.0338.8174-.0439,1.2278q-.0532,2.1563-.0549,4.32,0,2.0932.0531,4.18c.0132.5535.0382,1.104.0567,1.6562.0278.8216.0544,1.6433.0939,2.4634.0338.7072.0786,1.4114.1209,2.1163.0391.6468.077,1.2937.1234,1.9395.0576.8074.1246,1.612.1934,2.4163.0448.5217.09,1.0433.1393,1.5643q.127,1.3407.2755,2.675.0682.6147.1409,1.2284.1731,1.47.37,2.9326c.0385.2836.0794.5666.1193.85q.2283,1.6266.484,3.2443c.0184.1145.0384.2286.0569.343a170.5351,170.5351,0,0,0,5.001,21.7405c.0983.3285.1936.6578.2939.9857.2421.7894.4939,1.5743.7471,2.3589.18.5578.3586,1.1155.5438,1.6714.2028.6071.4112,1.2114.6205,1.8154q.3946,1.1418.804,2.2781.2274.6272.46,1.252.5478,1.4795,1.123,2.9484c.0773.1968.1541.3938.2321.59a171.7628,171.7628,0,0,0,31.3665,50.9646,8.5021,8.5021,0,0,0,.7914.7712,171.7142,171.7142,0,0,0,255.5248.0029,8.5,8.5,0,0,0,.7946-.7741,171.7653,171.7653,0,0,0,31.369-50.9722C560,463.0521,560.0748,462.8609,560.15,462.67Zm-5.5632-51.7974c-.0447.6385-.0916,1.2767-.1442,1.914-.0418.5092-.0891,1.0167-.1358,1.5245-.0671.7258-.1335,1.4517-.2108,2.1758-.0314.2955-.0684.5894-.1014.8844q-.5138,4.5678-1.2891,9.0839l-.0071.0427c-.17.9833-.3529,1.9639-.542,2.9428-.03.1563-.0594.3127-.09.4689q-.2769,1.41-.58,2.8134-.0587.272-.1186.5435-.307,1.3989-.6382,2.7913c-.0369.1544-.0757.308-.1131.4623q-1.338,5.5242-3.0811,10.9272c-.1929.5986-.3834,1.1982-.5835,1.7936-.1423.4249-.2912.8474-.4372,1.2709-.2692.7786-.5407,1.556-.8219,2.329-.1024.2822-.207.5636-.311.8452q-.5451,1.4714-1.116,2.93c-.0335.0853-.0668.1706-.1.2559a155.0875,155.0875,0,0,1-24.0383,40.9229,204.9694,204.9694,0,0,0-34.2525-13.5228c7.3091-23.0063,11.531-48.8313,12.265-75.7719h56.5938c-.0091.1663-.0172.3326-.0268.4988Q554.6518,409.9372,554.5866,410.8726Zm-298.75,46.0013c-.0342-.0868-.0681-.1736-.1022-.2606q-.5733-1.456-1.115-2.9274c-.1039-.2816-.2087-.5629-.311-.8452-.2812-.7729-.5527-1.55-.8219-2.329-.146-.4235-.2949-.846-.4372-1.2709-.2-.5953-.3906-1.195-.5835-1.7936q-1.7364-5.401-3.0808-10.9263c-.0375-.1545-.0764-.3087-.1133-.4634q-.3323-1.3906-.6376-2.7885-.06-.2741-.12-.5483-.3024-1.4018-.58-2.81c-.0309-.1575-.06-.3155-.0909-.4731q-.2834-1.4669-.5414-2.94l-.0071-.0427q-.78-4.51-1.2885-9.0776c-.0333-.2973-.07-.5934-.1022-.8912-.0772-.7239-.1437-1.45-.2108-2.1752-.0467-.5078-.094-1.0154-.1358-1.5245-.0526-.6373-.0994-1.2755-.1442-1.914q-.0651-.9354-.1191-1.8738c-.01-.1661-.0177-.3325-.0268-.4988h56.5938c.7339,26.9406,4.9558,52.7655,12.265,75.7719a204.9586,204.9586,0,0,0-34.2522,13.5229A155.09,155.09,0,0,1,255.8362,456.8738Zm-10.3853-68.3354c.0287-.3921.0617-.7834.0933-1.1749q.1105-1.3634.2424-2.7208c.0315-.3207.0649-.641.0983-.9613q.1606-1.5274.3492-3.0463c.0245-.1964.0486-.3928.0738-.589a154.44,154.44,0,0,1,37.8057-82.8179,211.764,211.764,0,0,0,32.1375,12.1282c-8.6192,24.5616-13.5873,52.6875-14.39,82.1436h-56.596c.0069-.1276.0145-.2552.0217-.3828C245.3358,390.2561,245.3879,389.3958,245.4509,388.5385Zm308.2416-8.49c.025.1944.0488.389.0731.5836q.1908,1.5232.35,3.0556c.033.3163.066.6328.0971.9495q.1346,1.3619.2433,2.7312c.0314.39.0643.7789.0928,1.169.063.8582.1152,1.7192.1641,2.5812.0072.1273.0148.2545.0216.3818h-56.596c-.8025-29.4561-5.7706-57.582-14.39-82.1436a211.7685,211.7685,0,0,0,32.1377-12.1282A154.44,154.44,0,0,1,553.6924,380.0482ZM391.5,303.5006a296.1464,296.1464,0,0,1-52.0961-5.9825q2.1842-4.6458,4.5805-9.0205c13.2736-24.1752,29.8961-38.9733,47.5156-42.591Zm0,17.0088V391.5H318.87c.8068-28.147,5.6159-54.8655,13.9227-77.9469A309.36,309.36,0,0,0,391.5,320.5094Zm0,87.9906v63.91a309.7111,309.7111,0,0,0-60.9289,7.5195c-6.9429-21.5355-10.9692-45.8943-11.7011-71.43Zm0,80.9147v64.6787c-17.62-3.6177-34.242-18.4157-47.5156-42.5905a167.5139,167.5139,0,0,1-7.4691-15.5114A293.7375,293.7375,0,0,1,391.5,489.4147Zm17,0a293.738,293.738,0,0,1,54.9846,6.5768,167.5287,167.5287,0,0,1-7.4689,15.5114c-13.2736,24.1747-29.8963,38.9727-47.5156,42.59Zm0-17.0047V408.5h72.63c-.732,25.5351-4.7584,49.894-11.7013,71.4294A309.7122,309.7122,0,0,0,408.5,472.41Zm0-80.91V320.5093a309.3675,309.3675,0,0,0,58.7071-6.9562c8.3066,23.0815,13.1161,49.8,13.9229,77.9469Zm0-87.9994v-57.594c17.6193,3.6177,34.242,18.4158,47.5156,42.5909q2.3981,4.368,4.58,9.0206A296.1464,296.1464,0,0,1,408.5,303.5006ZM477.4093,293.41q-3.0414-6.7935-6.4923-13.0941a136.4426,136.4426,0,0,0-18.2737-26.0776,155.138,155.138,0,0,1,50.4238,30.1372A204.016,204.016,0,0,1,477.4093,293.41ZM329.083,280.3159q-3.4524,6.2879-6.4923,13.0941a204.0043,204.0043,0,0,1-25.6577-9.0344,155.1364,155.1364,0,0,1,50.4232-30.137A136.441,136.441,0,0,0,329.083,280.3159Zm-9.195,219.9468a185.6093,185.6093,0,0,0,9.195,19.4219,136.4423,136.4423,0,0,0,18.2731,26.0769A155.292,155.292,0,0,1,291.8284,510.86,194.0276,194.0276,0,0,1,319.888,500.2627Zm151.029,19.4219a185.6151,185.6151,0,0,0,9.195-19.4219,194.0239,194.0239,0,0,1,28.06,10.5971,155.2912,155.2912,0,0,1-55.5283,34.902A136.4444,136.4444,0,0,0,470.917,519.6846Z" style="fill:#fff"/></g></svg>